<?xml version="1.0" encoding="utf-8"?>
<!-- Generator: Adobe Illustrator 18.0.0, SVG Export Plug-In . SVG Version: 6.00 Build 0)  -->
<!DOCTYPE svg PUBLIC "-//W3C//DTD SVG 1.0//EN" "http://www.w3.org/TR/2001/REC-SVG-20010904/DTD/svg10.dtd">
<svg version="1.0" xmlns="http://www.w3.org/2000/svg" xmlns:xlink="http://www.w3.org/1999/xlink" x="0px" y="0px"
	 viewBox="0 0 107 107" enable-background="new 0 0 107 107" xml:space="preserve">
<g id="Layer_4">
</g>
<g id="Layer_7">
</g>
<g id="Layer_3">
</g>
<g id="Grass_detail" opacity="0.25">
</g>
<g id="web_background">
</g>
<g id="Layer_1">
	<g id="Layer_2">
	</g>
</g>
<g id="contact">
	<g>
		<circle fill="#17C7D2" cx="53.5" cy="53.5" r="53.5"/>
		<g>
			<path id="Behance_3_" fill="#FFFFFF" d="M76.3,41.3H62.6v-3.4h13.7L76.3,41.3C76.3,41.3,76.3,41.3,76.3,41.3z M53.4,55.3
				c0.9,1.4,1.3,3,1.3,5c0,2-0.5,3.8-1.5,5.4c-0.6,1.1-1.4,2-2.4,2.7c-1.1,0.8-2.4,1.4-3.8,1.7c-1.5,0.3-3.1,0.5-4.8,0.5H26.9v-34
				h16.4c4.1,0.1,7.1,1.3,8.8,3.6c1,1.4,1.6,3.2,1.6,5.2c0,2.1-0.5,3.7-1.6,5c-0.6,0.7-1.4,1.4-2.6,1.9
				C51.3,52.9,52.6,53.9,53.4,55.3z M34.7,49.9h7.2c1.5,0,2.7-0.3,3.6-0.8c0.9-0.6,1.4-1.6,1.4-3c0-1.6-0.6-2.6-1.8-3.1
				c-1-0.4-2.4-0.5-4-0.5h-6.3V49.9z M47.6,59.8c0-1.8-0.7-3-2.2-3.6c-0.8-0.4-1.9-0.6-3.4-0.6h-7.3v9.1h7.2c1.5,0,2.6-0.2,3.4-0.6
				C46.9,63.3,47.6,61.9,47.6,59.8z M81.4,54.2c0.2,1.1,0.2,2.7,0.2,4.8H63.8c0.1,2.4,0.9,4.2,2.5,5.1c1,0.6,2.1,0.9,3.5,0.9
				c1.4,0,2.6-0.4,3.5-1.1c0.5-0.4,0.9-1,1.3-1.7h6.5c-0.2,1.4-1,2.9-2.4,4.4c-2.2,2.4-5.2,3.6-9.2,3.6c-3.2,0-6.1-1-8.6-3
				c-2.5-2-3.7-5.3-3.7-9.8c0-4.2,1.1-7.5,3.4-9.7c2.2-2.3,5.1-3.4,8.7-3.4c2.1,0,4,0.4,5.7,1.1c1.7,0.8,3.1,2,4.2,3.6
				C80.4,50.6,81.1,52.3,81.4,54.2z M75,54.9c-0.1-1.7-0.7-3-1.7-3.9c-1-0.9-2.3-1.3-3.8-1.3c-1.6,0-2.9,0.5-3.8,1.4
				c-0.9,0.9-1.5,2.2-1.7,3.8L75,54.9L75,54.9z"/>
		</g>
	</g>
</g>
<g id="Sweater_white_knit" opacity="0.2">
</g>
<g id="Sweater_black_knit" opacity="0.5">
</g>
<g id="Layer_9">
</g>
</svg>
