<?xml version="1.0" encoding="utf-8"?>
<!-- Generator: Adobe Illustrator 19.2.1, SVG Export Plug-In . SVG Version: 6.00 Build 0)  -->
<svg version="1.1" id="Layer_1" xmlns="http://www.w3.org/2000/svg" xmlns:xlink="http://www.w3.org/1999/xlink" x="0px" y="0px"
	 viewBox="0 0 107 107" style="enable-background:new 0 0 107 107;" xml:space="preserve">
<style type="text/css">
	.st0{opacity:0.25;}
	.st1{fill:#17C7D2;}
	.st2{opacity:0.2;}
	.st3{opacity:0.5;}
	.st4{fill:#FFFFFF;}
</style>
<circle class="st1" cx="53.5" cy="53.5" r="53.5"/>
<g>
	<g>
		<g>
			<path class="st4" d="M63.5,52c0,5.5-4.5,10-10,10c-5.5,0-10-4.5-10-10c0-1.3,0.2-2.5,0.7-3.6H31.8v15c0,6,4.9,10.8,10.8,10.8
				h21.7c6,0,10.8-4.9,10.8-10.8v-15H62.9C63.3,49.6,63.5,50.8,63.5,52z"/>
			<circle class="st4" cx="53.5" cy="52" r="6"/>
			<path class="st4" d="M64.4,30.9H43.2v11.3h-2.4V31.1c-0.8,0.1-1.6,0.4-2.4,0.7v10.5h-2.4v-9.1c-2.6,2-4.3,5.1-4.3,8.6v3.2h14.6
				c1.8-1.8,4.3-2.9,7.1-2.9s5.3,1.1,7.1,2.9h14.6v-3.2C75.2,35.8,70.3,30.9,64.4,30.9z M69.2,41.2c0,0.7-0.5,1.2-1.2,1.2h-3.7
				c-0.7,0-1.2-0.5-1.2-1.2v-3.7c0-0.7,0.5-1.2,1.2-1.2H68c0.7,0,1.2,0.5,1.2,1.2V41.2z"/>
		</g>
	</g>
</g>
</svg>
