<?xml version="1.0" encoding="utf-8"?>
<!-- Generator: Adobe Illustrator 18.0.0, SVG Export Plug-In . SVG Version: 6.00 Build 0)  -->
<!DOCTYPE svg PUBLIC "-//W3C//DTD SVG 1.0//EN" "http://www.w3.org/TR/2001/REC-SVG-20010904/DTD/svg10.dtd">
<svg version="1.0" xmlns="http://www.w3.org/2000/svg" xmlns:xlink="http://www.w3.org/1999/xlink" x="0px" y="0px"
	 viewBox="0 0 107 107" enable-background="new 0 0 107 107" xml:space="preserve">
<g id="Layer_4">
</g>
<g id="Layer_7">
</g>
<g id="Layer_3">
</g>
<g id="Grass_detail" opacity="0.25">
</g>
<g id="web_background">
</g>
<g id="Layer_1">
	<g id="Layer_2">
	</g>
</g>
<g id="contact">
	<g>
		<circle fill="#17C7D2" cx="53.5" cy="53.5" r="53.5"/>
		<g>
			<g>
				<rect x="32" y="44.7" fill="#FFFFFF" width="9.2" height="29.6"/>
				<path fill="#FFFFFF" d="M36.6,40.7c-3,0-5.3-2.4-5.3-5.3c0-2.9,2.4-5.3,5.3-5.3c2.9,0,5.3,2.4,5.3,5.3
					C42,38.3,39.6,40.7,36.6,40.7z"/>
			</g>
			<path fill="#FFFFFF" d="M75.7,74.3h-9.2V59.9c0-3.4-0.1-7.9-4.8-7.9c-4.8,0-5.5,3.7-5.5,7.6v14.7H47V44.7h8.8v4.1H56
				c1.2-2.3,4.2-4.8,8.7-4.8c9.3,0,11,6.1,11,14.1V74.3z"/>
		</g>
	</g>
</g>
<g id="Sweater_white_knit" opacity="0.2">
</g>
<g id="Sweater_black_knit" opacity="0.5">
</g>
<g id="Layer_9">
</g>
</svg>
