<svg id="Layer_1" data-name="Layer 1" xmlns="http://www.w3.org/2000/svg" viewBox="0 0 338.9 338.9"><defs><style>.cls-1{fill:#8c8c8c;}</style></defs><title>logo</title><path class="cls-1" d="M324,46.55A169.45,169.45,0,1,0,493.45,216,169.46,169.46,0,0,0,324,46.55Zm94.63,139.59H396.5l-17.91,84c-.34,1.6-.54,3.61.44,4.16l.08,0s1.27.72,5.93.72c1.14,0,2.19,0,3.22-.06s2.54-.13,4.09-.29l6.18-.61-5.32,25.16-.18.84h0l-2.67.72a60.57,60.57,0,0,1-8.85,1.7,81.72,81.72,0,0,1-9.41.51c-12,0-19.81-3.48-23.17-10.36-3-6.12-3.49-13.93-1.51-23.23l17.75-83.34h-80c-6.83,0-12.6,1.5-17.17,4.44a14.93,14.93,0,0,0-7,9.63c-.82,3.85.25,6.5,3.61,8.85,1.67,1.19,5,2.94,11.72,4.66l13.69,3.51c15.59,4,25.68,7.85,30.83,11.82,8.74,6.7,11.66,17.08,8.69,30.84-2.63,12.53-9.71,23.48-21,32.51S281.76,306,262.86,306c-21.06,0-34.77-4.93-41.92-15.06-6.86-9.73-9.14-21.81-6.76-35.89l.64-3.8h30l-.64,5.11c-.76,6.23-.3,10.92,1.39,13.92,3.06,5.45,10.57,8.22,22.31,8.22a44.62,44.62,0,0,0,20.4-4.77,18.29,18.29,0,0,0,10.26-13.17c1-4.7-.81-6.67-2.76-8-1.35-.86-5.21-2.71-16-5.58l-16.34-4.36c-11.12-2.91-19-6.15-24-9.94-9.56-6.92-13.22-17-10.59-29.09a51.84,51.84,0,0,1,12.92-25.1,58.1,58.1,0,0,1,8.41-7.41c11.2-8.12,24.92-12.24,40.76-12.24H371L378,126h31.34l-7,32.82h22.47Z" transform="translate(-154.55 -46.55)"/></svg>