<?xml version="1.0" encoding="utf-8"?>
<!-- Generator: Adobe Illustrator 18.0.0, SVG Export Plug-In . SVG Version: 6.00 Build 0)  -->
<!DOCTYPE svg PUBLIC "-//W3C//DTD SVG 1.0//EN" "http://www.w3.org/TR/2001/REC-SVG-20010904/DTD/svg10.dtd">
<svg version="1.0" xmlns="http://www.w3.org/2000/svg" xmlns:xlink="http://www.w3.org/1999/xlink" x="0px" y="0px"
	 viewBox="0 0 52.9 52.9" enable-background="new 0 0 52.9 52.9" xml:space="preserve">
<g id="Layer_4">
</g>
<g id="Layer_7">
</g>
<g id="Layer_3">
</g>
<g id="Grass_detail" opacity="0.25">
</g>
<g id="web_background">
</g>
<g id="Layer_1">
	<g id="Layer_2">
	</g>
</g>
<g id="contact">
	<g>
		<path fill="#17C7D2" d="M26.5,0C11.9,0,0,11.8,0,26.5c0,14.6,11.9,26.5,26.5,26.5s26.5-11.8,26.5-26.5C52.9,11.8,41.1,0,26.5,0z
			 M41.3,21.8h-3.5L35,34.9c-0.1,0.2-0.1,0.6,0.1,0.6l0,0c0,0,0.2,0.1,0.9,0.1c0.2,0,0.3,0,0.5,0c0.2,0,0.4,0,0.6,0l1-0.1l-0.8,3.9
			l0,0.1l-0.4,0.1c-0.5,0.1-0.9,0.2-1.4,0.3C35,40,34.5,40.1,34,40.1c-1.9,0-3.1-0.5-3.6-1.6c-0.5-1-0.5-2.2-0.2-3.6l2.8-13H20.4
			c-1.1,0-2,0.2-2.7,0.7c-0.6,0.4-1,0.9-1.1,1.5c-0.1,0.6,0,1,0.6,1.4c0.3,0.2,0.8,0.5,1.8,0.7l2.1,0.5c2.4,0.6,4,1.2,4.8,1.8
			c1.4,1,1.8,2.7,1.4,4.8c-0.4,2-1.5,3.7-3.3,5.1c-1.8,1.4-4.2,2.1-7.1,2.1c-3.3,0-5.4-0.8-6.5-2.4c-1.1-1.5-1.4-3.4-1.1-5.6L9.4,32
			h4.7L14,32.8c-0.1,1,0,1.7,0.2,2.2c0.5,0.8,1.7,1.3,3.5,1.3c1.1,0,2.2-0.3,3.2-0.7c0.9-0.5,1.4-1.1,1.6-2.1c0.2-0.7-0.1-1-0.4-1.2
			c-0.2-0.1-0.8-0.4-2.5-0.9L17,30.6c-1.7-0.5-3-1-3.8-1.6c-1.5-1.1-2.1-2.7-1.7-4.5c0.3-1.5,1-2.8,2-3.9c0.4-0.4,0.8-0.8,1.3-1.2
			c1.8-1.3,3.9-1.9,6.4-1.9h12.5l1.1-5.1h4.9l-1.1,5.1h3.5L41.3,21.8z"/>
	</g>
</g>
<g id="Sweater_white_knit" opacity="0.2">
</g>
<g id="Sweater_black_knit" opacity="0.5">
</g>
<g id="Layer_9">
</g>
</svg>
